<svg xmlns="http://www.w3.org/2000/svg" viewBox="0 0 1200 630">
  <defs>
    <linearGradient id="bg" x1="0%" y1="0%" x2="100%" y2="100%">
      <stop offset="0%" stop-color="#0A0A0A" />
      <stop offset="100%" stop-color="#15111f" />
    </linearGradient>
    <linearGradient id="brand" x1="0%" y1="0%" x2="100%" y2="100%">
      <stop offset="0%" stop-color="#6C63FF" />
      <stop offset="50%" stop-color="#8B5CF6" />
      <stop offset="100%" stop-color="#22D3EE" />
    </linearGradient>
    <radialGradient id="glow" cx="20%" cy="20%" r="60%">
      <stop offset="0%" stop-color="#6C63FF" stop-opacity="0.35" />
      <stop offset="100%" stop-color="#6C63FF" stop-opacity="0" />
    </radialGradient>
  </defs>

  <rect width="1200" height="630" fill="url(#bg)" />
  <rect width="1200" height="630" fill="url(#glow)" />

  <g stroke="#6C63FF" stroke-opacity="0.25" stroke-width="1.5" fill="none">
    <line x1="820" y1="90" x2="960" y2="150" />
    <line x1="960" y1="150" x2="1100" y2="110" />
    <line x1="960" y1="150" x2="950" y2="280" />
    <line x1="950" y1="280" x2="1090" y2="330" />
    <line x1="820" y1="90" x2="800" y2="230" />
    <line x1="800" y1="230" x2="950" y2="280" />
  </g>
  <g fill="#8B5CF6">
    <circle cx="820" cy="90" r="5" />
    <circle cx="960" cy="150" r="5" />
    <circle cx="1100" cy="110" r="5" />
    <circle cx="950" cy="280" r="5" />
    <circle cx="1090" cy="330" r="5" />
    <circle cx="800" cy="230" r="5" />
  </g>

  <rect x="96" y="90" width="88" height="88" rx="22" fill="url(#brand)" />
  <text x="140" y="147" font-family="'Space Grotesk','Arial',sans-serif" font-size="34" font-weight="700" fill="#ffffff" text-anchor="middle">MA</text>

  <text x="96" y="300" font-family="'Space Grotesk','Arial',sans-serif" font-size="58" font-weight="700" fill="#F8F8F8">Mohammed Ahmed</text>
  <text x="96" y="350" font-family="'Inter','Arial',sans-serif" font-size="28" fill="#8B5CF6">Computer Engineer &amp; IT Support Engineer</text>
  <text x="96" y="400" font-family="'Inter','Arial',sans-serif" font-size="22" fill="#F8F8F8" opacity="0.6">Networking &#183; Systems &#183; Cybersecurity &#183; Full-Stack Development</text>
</svg>
